<?xml version="1.0" encoding="utf-8"?>
<!-- Generator: Adobe Illustrator 28.0.0, SVG Export Plug-In . SVG Version: 6.00 Build 0)  -->
<svg version="1.1" id="Слой_1" xmlns="http://www.w3.org/2000/svg" xmlns:xlink="http://www.w3.org/1999/xlink" x="0px" y="0px"
	 viewBox="0 0 1000 628.4544067" enable-background="new 0 0 1000 628.4544067" xml:space="preserve">
<path d="M286.3402405,524.7219849c22.8532104-19.7914734,26.7669678-44.2645264,26.7669678-66.2636414v-92.2688293H188.9889832
	V491.432312c0,17.8612061-13.9908905,32.43573-31.2207642,32.43573s-30.0510788-14.5745239-30.0510788-32.43573V136.5333862
	c0-17.9051666,12.8212051-32.3918457,30.0510788-32.3918457s31.2207642,14.4866791,31.2207642,32.3918457v126.0527649h123.9383545
	V131.8545837c0-72.2494202-45.4815979-131.720047-156.1937561-131.8545837C43.0072403,0,0.044962,59.7397041,0,131.9891357
	l0.044962,370.5113525c0,71.6179199,54.7487488,125.8276367,124.7479401,125.7809448h38.463768L286.3402405,524.7219849z"/>
<polygon points="689.9968262,12.0896225 689.9968262,132.0715027 775.6064453,132.0715027 775.6064453,539.2443848 
	877.1414185,627.553833 913.8954468,627.553833 913.8954468,132.0715027 1000,132.0715027 1000,12.0896225 "/>
<polygon fill="#F6D000" points="216.4760284,628.4544067 831.1739502,628.4544067 529.3133545,365.7776489 "/>
<path d="M529.3629761,117.4859772l33.2450562,177.4288788h-66.715332L529.3629761,117.4859772z M442.4936829,12.8007765
	L341.7234192,482.2394714l187.6395569-157.2309875l195.6020508,170.2322083L615.4224243,12.8007765H442.4936829z"/>
</svg>
